<svg>
  <symbol style="enable-background:new 0 0 15.207 10.854" viewBox="0 0 15.207 10.854" xml:space="preserve" xmlns="http://www.w3.org/2000/svg" id="arrow_back">
     <path d="M11.707 0h-4v1h4c1.378 0 2.5 1.122 2.5 2.5S13.085 6 11.707 6H1.914L5.06 2.854l-.706-.708L0 6.5l4.354 4.354.707-.707L1.914 7h9.793c1.93 0 3.5-1.57 3.5-3.5s-1.57-3.5-3.5-3.5z" fill="currentColor"/>
  </symbol>
  <symbol version="1.0" xmlns="http://www.w3.org/2000/svg"  viewBox="0 0 100 100" id="sound_on">
    <path d="M37.7 17.8 24 31.5v37l13.8 13.8C45.3 89.8 52.3 96 53.2 96c.9 0 2.4-.7 3.2-1.6C57.8 93 58 87.6 58 50s-.2-43-1.6-44.4c-.8-.9-2.3-1.6-3.2-1.6-1 0-7.9 6.2-15.5 13.8zM78.4 22.5c-.4 1.1.7 2.7 3.4 5.1 2.2 1.9 5.3 6 6.9 9.2 2.3 4.7 2.8 7 2.8 13.2 0 6.2-.5 8.5-2.8 13.2-1.6 3.2-4.7 7.3-6.9 9.2-2.7 2.4-3.8 4-3.4 5.1.8 2.2 3.1.8 8.5-5 6.6-7.1 8.6-12.4 8.6-22.5s-2-15.4-8.6-22.5c-5.4-5.8-7.7-7.2-8.5-5z" fill="currentColor"/>
    <path d="M71.4 32.5c-.4.9.4 2.4 2.1 3.7C76.9 38.9 80 45.4 80 50c0 4.6-3.1 11.1-6.5 13.8-1.7 1.3-2.5 2.8-2.1 3.7.8 2.2 1.8 1.9 5.5-1.7 5.1-4.9 6.5-8.5 6.5-15.8 0-7.3-1.4-10.9-6.5-15.8-3.7-3.6-4.7-3.9-5.5-1.7zM6 34c-1.8 1.8-2 3.3-2 16 0 17.1.5 18 10 18h6V32h-6c-4.7 0-6.4.4-8 2z" fill="currentColor"/>
    <path d="M64.6 42.5c-.3.close-cross9.3 2.4 1.4 3.5 1.1 1.1 2 2.9 2 4s-.9 2.9-2 4c-1.9 1.9-1.8 5 .1 5 1.6 0 4.8-3.9 5.5-6.5.8-3.3-.2-7.1-2.6-9.5-2.4-2.4-3.6-2.5-4.4-.5z" fill="currentColor"/>
  </symbol>
  <symbol version="1.0" xmlns="http://www.w3.org/2000/svg"  viewBox="0 0 100 100" id="sound_off">
    <path d="M1 1.8C1 3.7 96.8 100 98.8 100c3 0 .7-4.1-6.3-11l-7.4-7.4 4-4.4c2.3-2.4 5.5-7.3 7.2-11 2.9-6.1 3.2-7.5 3.1-16.2 0-12.4-2.5-18.8-10.2-27.1-5.3-5.8-12.3-10.5-13.6-9.2-1.5 1.5-.3 3.2 4.5 6.3 6.5 4.2 11.4 10.8 13.9 18.9 4 12.6 1.7 24-6.8 34.6-3.9 4.8-5 5-8.3 1.9l-2.8-2.7 2.8-3.6c4.5-5.8 6.3-10.1 6.8-16.6.6-7.2-.7-12.8-4.5-18.3-3.1-4.7-10.6-10.7-12.2-9.7-1.9 1.2-.9 3 3.4 6.2 10.8 7.9 12.5 24.9 3.7 35.4l-3 3.4-3.7-3.7-3.7-3.6 2.6-3.2c3.3-3.9 4.1-6.9 3.2-11.7-1.1-6.3-9.8-12.9-12-9.3-.3.5.9 1.9 2.8 3 6.1 3.6 7.4 9.9 3.1 15l-2.7 3.1-4.3-4.2-4.4-4.3V30.5c0-16.5-.3-20.4-1.6-22.3C49.5 4 46.5 5.3 36.6 15l-9.2 9-11.9-12C3.7.2 1-1.7 1 1.8zM20.7 30.7c-.4.3-.7 9-.7 19.3v18.6l12.8 12.7C42.7 91 46.3 94 48.3 94c4.8 0 5.7-2.9 5.7-18.5v-14L38.2 45.7C29.6 37.1 22.2 30 21.9 30c-.3 0-.9.3-1.2.7zM2 34c-1.8 1.8-2 3.3-2 16 0 17.1.5 18 10 18h6V32h-6c-4.7 0-6.4.4-8 2z" fill="currentColor"/>
  </symbol>
  <symbol viewBox="0 0 100 100" xml:space="preserve" xmlns="http://www.w3.org/2000/svg" id="play">
    <path d="m31.356 25.677 38.625 22.3c1.557.899 1.557 3.147 0 4.046l-38.625 22.3c-1.557.899-3.504-.225-3.504-2.023V27.7c0-1.798 1.946-2.922 3.504-2.023z"/>
    <path d="m69.981 47.977-38.625-22.3a2.343 2.343 0 0 0-.716-.259l37.341 21.559c1.557.899 1.557 3.147 0 4.046l-38.625 22.3a2.296 2.296 0 0 1-1.078.301c.656.938 1.961 1.343 3.078.699l38.625-22.3c1.557-.899 1.557-3.147 0-4.046z"/>
    <path d="m31.356 25.677 38.625 22.3c1.557.899 1.557 3.147 0 4.046l-38.625 22.3c-1.557.899-3.504-.225-3.504-2.023V27.7c0-1.798 1.946-2.922 3.504-2.023z" fill="currentColor"/>
  </symbol>
  <symbol viewBox="0 0 100 100" xml:space="preserve" xmlns="http://www.w3.org/2000/svg" id="pause">
    <path d="M39.806 72.858h-8.915a3.94 3.94 0 0 1-3.94-3.94V31.119a3.94 3.94 0 0 1 3.94-3.94h8.915a3.94 3.94 0 0 1 3.94 3.94v37.799a3.94 3.94 0 0 1-3.94 3.94zM68.109 72.821h-8.915a3.94 3.94 0 0 1-3.94-3.94V31.082a3.94 3.94 0 0 1 3.94-3.94h8.915a3.94 3.94 0 0 1 3.94 3.94v37.799a3.94 3.94 0 0 1-3.94 3.94z"/>
    <path d="M40.489 27.248a3.919 3.919 0 0 1 1.257 2.871v37.799a3.94 3.94 0 0 1-3.94 3.94h-8.915c-.234 0-.46-.03-.683-.069a3.916 3.916 0 0 0 2.683 1.069h8.915a3.94 3.94 0 0 0 3.94-3.94V31.119a3.934 3.934 0 0 0-3.257-3.871zM68.792 27.211a3.919 3.919 0 0 1 1.257 2.871v37.799a3.94 3.94 0 0 1-3.94 3.94h-8.915c-.234 0-.46-.03-.683-.069a3.916 3.916 0 0 0 2.683 1.069h8.915a3.94 3.94 0 0 0 3.94-3.94V31.082a3.933 3.933 0 0 0-3.257-3.871z"/>
    <path d="M39.806 72.858h-8.915a3.94 3.94 0 0 1-3.94-3.94V31.119a3.94 3.94 0 0 1 3.94-3.94h8.915a3.94 3.94 0 0 1 3.94 3.94v37.799a3.94 3.94 0 0 1-3.94 3.94zM68.109 72.821h-8.915a3.94 3.94 0 0 1-3.94-3.94V31.082a3.94 3.94 0 0 1 3.94-3.94h8.915a3.94 3.94 0 0 1 3.94 3.94v37.799a3.94 3.94 0 0 1-3.94 3.94z" fill="currentColor"/>
  </symbol>
  <symbol viewBox="0 0 64 64" xmlns="http://www.w3.org/2000/svg" xml:space="preserve" style="fill-rule:evenodd;clip-rule:evenodd;stroke-linejoin:round;stroke-miterlimit:2" id="round">
    <path  d="M0 0h1280v800H0z" transform="translate(-576 -320)" fill="transparent"/>
    <circle cx="543.992" cy="352" r="14.13" transform="translate(-892.778 -566.387) scale(1.70002)" fill="currentColor"/>
  </symbol>
  <symbol xmlns="http://www.w3.org/2000/svg" viewBox="0 0 240 240" xml:space="preserve" id="arrow">
    <path fill="currentColor" stroke="#000" stroke-width="6.038" stroke-miterlimit="10" d="M43.1 123.8c0 6.4 5.1 11.7 11.2 11.7h117l-32.7 44.7c-1.8 2.4-2.5 5.3-2 8.2.5 2.9 2.1 5.5 4.5 7.3 1.9 1.4 4.2 2.1 6.6 2.1 3.6 0 7-1.7 9.1-4.6l45.7-62.8.1-.1c.3-.4.6-.9.8-1.4.5-1.1.9-2.2 1.1-3.3.1-.7.1-1.2.1-1.8 0-.5 0-1.1-.1-1.7-.2-1.2-.5-2.3-1-3.3 0 0 0-.1-.1-.1-.2-.4-.5-.9-.8-1.3-.1-.1-.1-.2-.2-.3l-45.7-62.8c-2.1-2.9-5.5-4.7-9.1-4.7-2.4 0-4.6.7-6.5 2.1-2.4 1.8-4 4.4-4.5 7.3-.5 2.9.3 5.8 2 8.3l32.7 44.7h-117c-6 0-11.2 5.4-11.2 11.8z"/>
  </symbol>
  <symbol baseProfile="tiny" xmlns="http://www.w3.org/2000/svg" viewBox="0 0 42 42" xml:space="preserve" id="close-cross">
    <path fill-rule="evenodd" d="m21.002 26.588 10.357 10.604c1.039 1.072 1.715 1.083 2.773 0l2.078-2.128c1.018-1.042 1.087-1.726 0-2.839L25.245 21 36.211 9.775c1.027-1.055 1.047-1.767 0-2.84l-2.078-2.127c-1.078-1.104-1.744-1.053-2.773 0L21.002 15.412 10.645 4.809c-1.029-1.053-1.695-1.104-2.773 0L5.794 6.936c-1.048 1.073-1.029 1.785 0 2.84L16.759 21 5.794 32.225c-1.087 1.113-1.029 1.797 0 2.839l2.077 2.128c1.049 1.083 1.725 1.072 2.773 0l10.358-10.604z" fill="currentColor"/>
  </symbol>
  <symbol viewBox="0 0 32 32"  xmlns="http://www.w3.org/2000/svg" id="add-file">
    <g fill="none" fill-rule="evenodd">
      <path d="m0 0h32v32h-32z"/>
      <path d="m22.0092457 0 7.9907543 10.0183757v21.9816243h-28v-32zm-5.0092457 11h-2v5h-5v2h5v5h2v-5h5v-2h-5z" fill="currentColor"/>
    </g>
  </symbol>
  <symbol viewBox="0 0 32 32" xmlns="http://www.w3.org/2000/svg" id="home">
      <path d="M30 15a1 1 0 0 1-.58-.19L16 5.23 2.58 14.81a1 1 0 0 1-1.16-1.62l14-10a1 1 0 0 1 1.16 0l14 10A1 1 0 0 1 30 15zM5 9a1 1 0 0 1-1-1V4a1 1 0 0 1 1-1h4a1 1 0 0 1 0 2H6v3a1 1 0 0 1-1 1z" fill="currentColor"/>
      <path d="M25 29h-5a1 1 0 0 1-1-1v-7h-6v7a1 1 0 0 1-1 1H7a3 3 0 0 1-3-3V16a1 1 0 0 1 2 0v10a1 1 0 0 0 1 1h4v-7a1 1 0 0 1 1-1h8a1 1 0 0 1 1 1v7h4a1 1 0 0 0 1-1V16a1 1 0 0 1 2 0v10a3 3 0 0 1-3 3z" fill="currentColor"/>
  </symbol>
  <symbol height="24" width="24" xmlns="http://www.w3.org/2000/svg" id="bot">
    <path d="M21 10.975V8a2 2 0 0 0-2-2h-6V4.688c.305-.274.5-.668.5-1.11a1.5 1.5 0 0 0-3 0c0 .442.195.836.5 1.11V6H5a2 2 0 0 0-2 2v2.998l-.072.005A.999.999 0 0 0 2 12v2a1 1 0 0 0 1 1v5a2 2 0 0 0 2 2h14a2 2 0 0 0 2-2v-5a1 1 0 0 0 1-1v-1.938a1.004 1.004 0 0 0-.072-.455c-.202-.488-.635-.605-.928-.632zM7 12c0-1.104.672-2 1.5-2s1.5.896 1.5 2-.672 2-1.5 2S7 13.104 7 12zm8.998 6c-1.001-.003-7.997 0-7.998 0v-2s7.001-.002 8.002 0l-.004 2zm-.498-4c-.828 0-1.5-.896-1.5-2s.672-2 1.5-2 1.5.896 1.5 2-.672 2-1.5 2z" fill="currentColor"/>
  </symbol>
  <symbol width="24" height="24" fill="none" xmlns="http://www.w3.org/2000/svg" id="main">
    <path d="m16.51 5.01-1.96-1.96c-1.4-1.4-3.7-1.4-5.1 0L7.49 5.01c-.39.39-.39 1.03 0 1.42l3.81 3.81c.39.39 1.02.39 1.41 0l3.81-3.81c.38-.39.38-1.03-.01-1.42zM5.01 7.492l-1.96 1.96c-1.4 1.4-1.4 3.7 0 5.1l1.96 1.96c.39.39 1.02.39 1.41 0l3.81-3.81a.996.996 0 0 0 0-1.41l-3.8-3.8c-.39-.39-1.03-.39-1.42 0zM20.95 9.452l-1.96-1.96a.996.996 0 0 0-1.41 0l-3.81 3.81a.996.996 0 0 0 0 1.41l3.81 3.81c.39.39 1.02.39 1.41 0l1.96-1.96c1.4-1.41 1.4-3.71 0-5.11zM7.49 18.99l1.96 1.96c1.4 1.4 3.7 1.4 5.1 0l1.96-1.96a.996.996 0 0 0 0-1.41l-3.81-3.81a.996.996 0 0 0-1.41 0l-3.81 3.81c-.38.38-.38 1.02.01 1.41z" fill="currentColor"/>
  </symbol>
  <symbol viewBox="0 0 32 32" xmlns="http://www.w3.org/2000/svg" id="knowledgeBase">
    <path fill="currentColor" d="M24 3H8a2 2 0 0 0-2 2v22a2 2 0 0 0 2 2h16a2 2 0 0 0 2-2V5a2 2 0 0 0-2-2zm0 2v6H8V5zM8 19v-6h16v6zm0 8v-6h16v6z"/><circle cx="11" cy="8" r="1"/><circle cx="11" cy="16" r="1" fill="currentColor"/><circle cx="11" cy="24" r="1" fill="currentColor"/>
    <path data-name="&lt;Transparent Rectangle&gt;" style="fill:none" d="M0 0h32v32H0z" fill="currentColor"/>
  </symbol>
  <symbol aria-hidden="true" xmlns="http://www.w3.org/2000/svg" width="24" height="24" fill="none" viewBox="0 0 24 24" id="code">
    <path stroke="currentColor" stroke-linecap="round" stroke-linejoin="round" stroke-width="2" d="m8 8-4 4 4 4m8 0 4-4-4-4m-2-3-4 14"/>
  </symbol>
  <symbol class="w-[24px] h-[24px] text-gray-800 dark:text-white" aria-hidden="true" xmlns="http://www.w3.org/2000/svg" width="24" height="24" fill="none" viewBox="0 0 24 24" id="code-block">
    <path stroke="currentColor" stroke-linecap="round" stroke-linejoin="round" stroke-width="2" d="M10 3v4a1 1 0 0 1-1 1H5m5 4-2 2 2 2m4-4 2 2-2 2m5-12v16a1 1 0 0 1-1 1H6a1 1 0 0 1-1-1V7.914a1 1 0 0 1 .293-.707l3.914-3.914A1 1 0 0 1 9.914 3H18a1 1 0 0 1 1 1Z"/>
  </symbol>
  <symbol class="w-[24px] h-[24px] text-gray-800 dark:text-white" aria-hidden="true" xmlns="http://www.w3.org/2000/svg" width="24" height="24" fill="none" viewBox="0 0 24 24" id="line">
    <path stroke="currentColor" stroke-linecap="round" stroke-width="2" d="M5 12h14"/>
    <path stroke="currentColor" stroke-linecap="round" d="M6 9.5h12m-12-2h12m-12-2h12m-12 13h12m-12-2h12m-12-2h12"/>
  </symbol>
  <symbol aria-hidden="true" xmlns="http://www.w3.org/2000/svg" width="24" height="24" fill="none" viewBox="0 0 24 24" id="text-slash">
    <path stroke="currentColor" stroke-linecap="round" stroke-linejoin="round" stroke-width="2" d="M7 6.2V5h12v1.2M7 19h6m.2-14-1.677 6.523M9.6 19l1.029-4M5 5l6.523 6.523M19 19l-7.477-7.477"/>
  </symbol>
  <symbol aria-hidden="true" xmlns="http://www.w3.org/2000/svg" width="24" height="24" fill="none" viewBox="0 0 24 24" id="article">
    <path stroke="currentColor" stroke-linecap="round" stroke-linejoin="round" stroke-width="2" d="M10 3v4a1 1 0 0 1-1 1H5m4 10v-2m3 2v-6m3 6v-3m4-11v16a1 1 0 0 1-1 1H6a1 1 0 0 1-1-1V7.914a1 1 0 0 1 .293-.707l3.914-3.914A1 1 0 0 1 9.914 3H18a1 1 0 0 1 1 1Z"/>
  </symbol>
  <symbol aria-hidden="true" xmlns="http://www.w3.org/2000/svg" width="24" height="24" fill="currentColor" viewBox="0 0 24 24" id="close">
    <path fill-rule="evenodd" d="M2 12C2 6.477 6.477 2 12 2s10 4.477 10 10-4.477 10-10 10S2 17.523 2 12Zm7.707-3.707a1 1 0 0 0-1.414 1.414L10.586 12l-2.293 2.293a1 1 0 1 0 1.414 1.414L12 13.414l2.293 2.293a1 1 0 0 0 1.414-1.414L13.414 12l2.293-2.293a1 1 0 0 0-1.414-1.414L12 10.586 9.707 8.293Z" clip-rule="evenodd" fill="currentColor"/>
  </symbol>
  <symbol aria-hidden="true" xmlns="http://www.w3.org/2000/svg" width="24" height="24" fill="currentColor" viewBox="0 0 24 24" id="circle-plus">
    <path fill-rule="evenodd" d="M2 12C2 6.477 6.477 2 12 2s10 4.477 10 10-4.477 10-10 10S2 17.523 2 12Zm11-4.243a1 1 0 1 0-2 0V11H7.757a1 1 0 1 0 0 2H11v3.243a1 1 0 1 0 2 0V13h3.243a1 1 0 1 0 0-2H13V7.757Z" clip-rule="evenodd" fill="currentColor"/>
  </symbol>
  <symbol aria-hidden="true" xmlns="http://www.w3.org/2000/svg" width="24" height="24" fill="none" viewBox="0 0 24 24" id="eye">
    <path stroke="currentColor" stroke-width="2" d="M21 12c0 1.2-4.03 6-9 6s-9-4.8-9-6c0-1.2 4.03-6 9-6s9 4.8 9 6Z"/>
    <path stroke="currentColor" stroke-width="2" d="M15 12a3 3 0 1 1-6 0 3 3 0 0 1 6 0Z"/>
  </symbol>
  <symbol aria-hidden="true" xmlns="http://www.w3.org/2000/svg" width="24" height="24" fill="none" viewBox="0 0 24 24" id="font-size">
    <path stroke="currentColor" stroke-linecap="round" stroke-linejoin="round" stroke-width="2" d="M3 6.2V5h11v1.2M8 5v14m-3 0h6m2-6.8V11h8v1.2M17 11v8m-1.5 0h3"/>
  </symbol>
  <symbol aria-hidden="true" xmlns="http://www.w3.org/2000/svg" width="24" height="24" fill="none" viewBox="0 0 24 24" id="letter-italic">
    <path stroke="currentColor" stroke-linecap="round" stroke-linejoin="round" stroke-width="2" d="m8.874 19 6.143-14M6 19h6.33m-.66-14H18"/>
  </symbol>
  <symbol aria-hidden="true" xmlns="http://www.w3.org/2000/svg" width="24" height="24" fill="none" viewBox="0 0 24 24" id="letter-under">
    <path stroke="currentColor" stroke-linecap="round" stroke-width="2" d="M6 19h12M8 5v9a4 4 0 0 0 8 0V5M6 5h4m4 0h4"/>
  </symbol>
  <symbol aria-hidden="true" xmlns="http://www.w3.org/2000/svg" width="24" height="24" fill="none" viewBox="0 0 24 24" id="link">
    <path stroke="currentColor" stroke-linecap="round" stroke-linejoin="round" stroke-width="2" d="M13.213 9.787a3.391 3.391 0 0 0-4.795 0l-3.425 3.426a3.39 3.39 0 0 0 4.795 4.794l.321-.304m-.321-4.49a3.39 3.39 0 0 0 4.795 0l3.424-3.426a3.39 3.39 0 0 0-4.794-4.795l-1.028.961"/>
  </symbol>
  <symbol aria-hidden="true" xmlns="http://www.w3.org/2000/svg" width="24" height="24" fill="currentColor" viewBox="0 0 24 24" id="image">
    <path fill-rule="evenodd" d="M13 10a1 1 0 0 1 1-1h.01a1 1 0 1 1 0 2H14a1 1 0 0 1-1-1Z" clip-rule="evenodd"/>
    <path fill-rule="evenodd" d="M2 6a2 2 0 0 1 2-2h16a2 2 0 0 1 2 2v12c0 .556-.227 1.06-.593 1.422A.999.999 0 0 1 20.5 20H4a2.002 2.002 0 0 1-2-2V6Zm6.892 12 3.833-5.356-3.99-4.322a1 1 0 0 0-1.549.097L4 12.879V6h16v9.95l-3.257-3.619a1 1 0 0 0-1.557.088L11.2 18H8.892Z" clip-rule="evenodd"/>
  </symbol>
  <symbol aria-hidden="true" xmlns="http://www.w3.org/2000/svg" width="24" height="24" fill="none" viewBox="0 0 24 24" id="trash">
    <path stroke="currentColor" stroke-linecap="round" stroke-linejoin="round" stroke-width="2" d="M5 7h14m-9 3v8m4-8v8M10 3h4a1 1 0 0 1 1 1v3H9V4a1 1 0 0 1 1-1ZM6 7h12v13a1 1 0 0 1-1 1H7a1 1 0 0 1-1-1V7Z" />
  </symbol>
  <symbol aria-hidden="true" xmlns="http://www.w3.org/2000/svg" width="24" height="24" fill="none" viewBox="0 0 24 24" id="close-small">
    <path stroke="currentColor" stroke-linecap="round" stroke-linejoin="round" stroke-width="2" d="M6 18 17.94 6M18 18 6.06 6"/>
  </symbol>
  <symbol aria-hidden="true" xmlns="http://www.w3.org/2000/svg" width="24" height="24" fill="currentColor" viewBox="0 0 24 24" id="chat">
    <path fill-rule="evenodd" d="M3.559 4.544c.355-.35.834-.544 1.33-.544H19.11c.496 0 .975.194 1.33.544.356.35.559.829.559 1.331v9.25c0 .502-.203.981-.559 1.331-.355.35-.834.544-1.33.544H15.5l-2.7 3.6a1 1 0 0 1-1.6 0L8.5 17H4.889c-.496 0-.975-.194-1.33-.544A1.868 1.868 0 0 1 3 15.125v-9.25c0-.502.203-.981.559-1.331ZM7.556 7.5a1 1 0 1 0 0 2h8a1 1 0 0 0 0-2h-8Zm0 3.5a1 1 0 1 0 0 2H12a1 1 0 1 0 0-2H7.556Z" clip-rule="evenodd"/>
  </symbol>
  <symbol aria-hidden="true" xmlns="http://www.w3.org/2000/svg" width="24" height="24" fill="none" viewBox="0 0 24 24" id="games">
    <path stroke="currentColor" stroke-linecap="square" stroke-width="2" d="M8 15h7.01v.01H15L8 15Z"/>
    <path stroke="currentColor" stroke-linecap="square" stroke-width="2" d="M20 6H4a1 1 0 0 0-1 1v10a1 1 0 0 0 1 1h16a1 1 0 0 0 1-1V7a1 1 0 0 0-1-1Z"/>
    <path stroke="currentColor" stroke-linecap="square" stroke-width="2" d="M6 9h.01v.01H6V9Zm0 3h.01v.01H6V12Zm0 3h.01v.01H6V15Zm3-6h.01v.01H9V9Zm0 3h.01v.01H9V12Zm3-3h.01v.01H12V9Zm0 3h.01v.01H12V12Zm3 0h.01v.01H15V12Zm3 0h.01v.01H18V12Zm0 3h.01v.01H18V15Zm-3-6h.01v.01H15V9Zm3 0h.01v.01H18V9Z"/>
  </symbol>
  <symbol  aria-hidden="true" xmlns="http://www.w3.org/2000/svg" viewBox="0 0 24 24" fill="none" id="exit">
  <path stroke="currentColor" stroke-linecap="round" stroke-linejoin="round" stroke-width="2" d="M18 18V6h-5v12h5Zm0 0h2M4 18h2.5m3.5-5.5V12M6 6l7-2v16l-7-2V6Z"/>
  </symbol>
</svg>